<?xml version="1.0" standalone="no"?>
<!DOCTYPE svg PUBLIC "-//W3C//DTD SVG 20010904//EN"
 "http://www.w3.org/TR/2001/REC-SVG-20010904/DTD/svg10.dtd">
<svg version="1.0" xmlns="http://www.w3.org/2000/svg"
 width="1271.000000pt" height="1271.000000pt" viewBox="0 0 1271.000000 1271.000000"
 preserveAspectRatio="xMidYMid meet">
<metadata>
Created by potrace 1.14, written by Peter Selinger 2001-2017
</metadata>
<g transform="translate(0.000000,1271.000000) scale(0.100000,-0.100000)"
fill="#000000" stroke="none">
<path d="M5985 12703 c-61 -4 -371 -33 -405 -38 -14 -2 -47 -6 -75 -10 -27 -3
-61 -8 -75 -10 -1091 -169 -2031 -562 -2895 -1211 -152 -113 -182 -137 -265
-209 -26 -22 -75 -65 -111 -95 -179 -154 -451 -430 -642 -652 -241 -281 -490
-635 -686 -977 -131 -229 -219 -410 -377 -776 -49 -115 -171 -472 -213 -625
-83 -300 -134 -541 -171 -798 -12 -81 -23 -157 -25 -170 -2 -13 -7 -56 -10
-95 -4 -40 -9 -83 -11 -97 -26 -168 -26 -975 1 -1175 2 -16 6 -59 10 -95 12
-130 57 -419 90 -580 184 -906 552 -1737 1104 -2495 36 -49 71 -97 78 -105 69
-87 191 -238 203 -251 8 -9 44 -49 80 -90 595 -679 1362 -1241 2194 -1608 536
-238 1171 -417 1717 -486 68 -8 142 -17 164 -20 22 -3 74 -8 115 -11 41 -3
118 -9 170 -14 100 -8 827 -6 870 3 14 3 63 8 110 12 204 14 577 72 810 125
1032 232 1969 705 2775 1399 189 163 396 367 590 581 71 78 237 282 315 385
41 55 77 102 80 105 6 6 29 39 121 175 623 919 1000 2009 1076 3115 16 227 9
862 -11 1036 -2 16 -7 56 -10 89 -12 109 -16 142 -31 245 -3 22 -24 149 -41
245 -41 240 -138 608 -233 888 -181 529 -430 1028 -750 1502 -68 102 -266 373
-280 385 -3 3 -49 57 -101 120 -94 115 -127 152 -250 284 -318 339 -698 663
-1090 928 -672 453 -1428 773 -2230 943 -233 49 -529 94 -735 110 -44 4 -96 9
-115 12 -40 6 -760 11 -835 6z"/>
</g>
</svg>
